<svg width="128" height="128" viewBox="0 0 128 128" fill="none" xmlns="http://www.w3.org/2000/svg">
<g clip-path="url(#clip0_67_199)">
<path d="M64 128C99.3462 128 128 99.3462 128 64C128 28.6538 99.3462 0 64 0C28.6538 0 0 28.6538 0 64C0 99.3462 28.6538 128 64 128Z" fill="white"/>
<path d="M100.016 27L68.8 50.1843L74.5726 36.5059L100.016 27Z" fill="#E2761B" stroke="#E2761B" stroke-linecap="round" stroke-linejoin="round"/>
<path d="M27.953 27L58.9177 50.4039L53.4275 36.5059L27.953 27Z" fill="#E4761B" stroke="#E4761B" stroke-linecap="round" stroke-linejoin="round"/>
<path d="M88.7844 80.7412L80.4706 93.4785L98.2589 98.3726L103.373 81.0236L88.7844 80.7412Z" fill="#E4761B" stroke="#E4761B" stroke-linecap="round" stroke-linejoin="round"/>
<path d="M24.6588 81.0236L29.7412 98.3726L47.5294 93.4785L39.2157 80.7412L24.6588 81.0236Z" fill="#E4761B" stroke="#E4761B" stroke-linecap="round" stroke-linejoin="round"/>
<path d="M46.5255 59.2196L41.5686 66.7176L59.2314 67.5019L58.6039 48.5215L46.5255 59.2196Z" fill="#E4761B" stroke="#E4761B" stroke-linecap="round" stroke-linejoin="round"/>
<path d="M81.4431 59.2196L69.2078 48.3019L68.8 67.5019L86.4314 66.7176L81.4431 59.2196Z" fill="#E4761B" stroke="#E4761B" stroke-linecap="round" stroke-linejoin="round"/>
<path d="M47.5295 93.4785L58.1334 88.302L48.9726 81.149L47.5295 93.4785Z" fill="#E4761B" stroke="#E4761B" stroke-linecap="round" stroke-linejoin="round"/>
<path d="M69.8354 88.302L80.4707 93.4785L78.9961 81.149L69.8354 88.302Z" fill="#E4761B" stroke="#E4761B" stroke-linecap="round" stroke-linejoin="round"/>
<path d="M80.4707 93.4785L69.8354 88.302L70.6825 95.2353L70.5883 98.153L80.4707 93.4785Z" fill="#D7C1B3" stroke="#D7C1B3" stroke-linecap="round" stroke-linejoin="round"/>
<path d="M47.5294 93.4785L57.4118 98.153L57.349 95.2353L58.1333 88.302L47.5294 93.4785Z" fill="#D7C1B3" stroke="#D7C1B3" stroke-linecap="round" stroke-linejoin="round"/>
<path d="M57.5686 76.5686L48.7216 73.9647L54.9647 71.1098L57.5686 76.5686Z" fill="#233447" stroke="#233447" stroke-linecap="round" stroke-linejoin="round"/>
<path d="M70.4 76.5686L73.0039 71.1098L79.2784 73.9647L70.4 76.5686Z" fill="#233447" stroke="#233447" stroke-linecap="round" stroke-linejoin="round"/>
<path d="M47.5295 93.4784L49.0353 80.7411L39.2157 81.0235L47.5295 93.4784Z" fill="#CD6116" stroke="#CD6116" stroke-linecap="round" stroke-linejoin="round"/>
<path d="M78.9648 80.7411L80.4706 93.4784L88.7844 81.0235L78.9648 80.7411Z" fill="#CD6116" stroke="#CD6116" stroke-linecap="round" stroke-linejoin="round"/>
<path d="M86.4314 66.7177L68.8 67.502L70.4314 76.5686L73.0353 71.1098L79.3099 73.9647L86.4314 66.7177Z" fill="#CD6116" stroke="#CD6116" stroke-linecap="round" stroke-linejoin="round"/>
<path d="M48.7216 73.9647L54.9961 71.1098L57.5687 76.5686L59.2314 67.502L41.5687 66.7177L48.7216 73.9647Z" fill="#CD6116" stroke="#CD6116" stroke-linecap="round" stroke-linejoin="round"/>
<path d="M41.5687 66.7177L48.9726 81.149L48.7216 73.9647L41.5687 66.7177Z" fill="#E4751F" stroke="#E4751F" stroke-linecap="round" stroke-linejoin="round"/>
<path d="M79.3098 73.9647L78.996 81.149L86.4313 66.7177L79.3098 73.9647Z" fill="#E4751F" stroke="#E4751F" stroke-linecap="round" stroke-linejoin="round"/>
<path d="M59.2314 67.502L57.5686 76.5686L59.6392 87.2667L60.1098 73.1804L59.2314 67.502Z" fill="#E4751F" stroke="#E4751F" stroke-linecap="round" stroke-linejoin="round"/>
<path d="M68.7999 67.502L67.9529 73.149L68.3293 87.2667L70.4313 76.5686L68.7999 67.502Z" fill="#E4751F" stroke="#E4751F" stroke-linecap="round" stroke-linejoin="round"/>
<path d="M70.4314 76.5686L68.3294 87.2667L69.8353 88.302L78.9961 81.149L79.3098 73.9647L70.4314 76.5686Z" fill="#F6851B" stroke="#F6851B" stroke-linecap="round" stroke-linejoin="round"/>
<path d="M48.7216 73.9647L48.9725 81.149L58.1333 88.302L59.6392 87.2667L57.5686 76.5686L48.7216 73.9647Z" fill="#F6851B" stroke="#F6851B" stroke-linecap="round" stroke-linejoin="round"/>
<path d="M70.5882 98.153L70.6823 95.2353L69.898 94.5451H58.0706L57.349 95.2353L57.4118 98.153L47.5294 93.4785L50.9804 96.302L57.9765 101.165H69.9921L77.0196 96.302L80.4706 93.4785L70.5882 98.153Z" fill="#C0AD9E" stroke="#C0AD9E" stroke-linecap="round" stroke-linejoin="round"/>
<path d="M69.8352 88.302L68.3294 87.2667H59.6392L58.1333 88.302L57.349 95.2353L58.0705 94.5451H69.898L70.6823 95.2353L69.8352 88.302Z" fill="#161616" stroke="#161616" stroke-linecap="round" stroke-linejoin="round"/>
<path d="M101.333 51.6902L104 38.8902L100.016 27L69.8353 49.4L81.4431 59.2196L97.851 64.0196L101.49 59.7843L99.9216 58.6549L102.431 56.3647L100.486 54.8588L102.996 52.9451L101.333 51.6902Z" fill="#763D16" stroke="#763D16" stroke-linecap="round" stroke-linejoin="round"/>
<path d="M24 38.8902L26.6667 51.6902L24.9725 52.9451L27.4824 54.8588L25.5686 56.3647L28.0784 58.6549L26.5098 59.7843L30.1176 64.0196L46.5255 59.2196L58.1333 49.4L27.9529 27L24 38.8902Z" fill="#763D16" stroke="#763D16" stroke-linecap="round" stroke-linejoin="round"/>
<path d="M97.851 64.0196L81.4431 59.2196L86.4314 66.7176L78.9961 81.149L88.7843 81.0235H103.373L97.851 64.0196Z" fill="#F6851B" stroke="#F6851B" stroke-linecap="round" stroke-linejoin="round"/>
<path d="M46.5254 59.2196L30.1176 64.0196L24.6588 81.0235H39.2156L48.9725 81.149L41.5686 66.7176L46.5254 59.2196Z" fill="#F6851B" stroke="#F6851B" stroke-linecap="round" stroke-linejoin="round"/>
<path d="M68.8 67.5019L69.8352 49.4L74.6039 36.5059H53.4274L58.1333 49.4L59.2313 67.5019L59.6078 73.2117L59.6392 87.2666H68.3294L68.3921 73.2117L68.8 67.5019Z" fill="#F6851B" stroke="#F6851B" stroke-linecap="round" stroke-linejoin="round"/>
</g>
<defs>
<clipPath id="clip0_67_199">
<rect width="128" height="128" rx="24" fill="white"/>
</clipPath>
</defs>
</svg>
