<svg width="107" height="70" viewBox="0 0 107 70" fill="none" xmlns="http://www.w3.org/2000/svg">
<path d="M44.2255 17.2944H54.5728C57.1036 17.2942 59.6096 17.7887 61.9478 18.7494C64.286 19.7102 66.4105 21.1186 68.2001 22.894C69.9897 24.6694 71.4093 26.7772 72.3778 29.097C73.3463 31.4168 73.8448 33.9031 73.8448 36.414V62.3201H24.9546L24.9546 36.414C24.9546 31.3432 26.9849 26.48 30.5989 22.8944C34.2129 19.3088 39.1145 17.2944 44.2255 17.2944V17.2944Z" fill="#2F2E41"/>
<path opacity="0.2" d="M45.3571 18.3364H53.441C55.9718 18.3362 58.4778 18.8307 60.816 19.7914C63.1542 20.7522 65.2787 22.1605 67.0683 23.936C68.8579 25.7114 70.2775 27.8192 71.246 30.139C72.2145 32.4588 72.713 34.9451 72.713 37.456V61.277H26.0862L26.0862 37.456C26.0862 32.3852 28.1165 27.522 31.7305 23.9364C35.3445 20.3508 40.2461 18.3364 45.3571 18.3364V18.3364Z" fill="black"/>
<path d="M106.834 65.9794V67.9399C104.238 69.2068 101.38 69.8601 98.4867 69.8487H13.2604C12.5813 69.8487 11.9083 69.8218 11.2414 69.7679C8.87116 69.5827 6.54208 69.0475 4.33109 68.1802C3.89953 68.011 3.47626 67.8291 3.0613 67.6345C2.86363 67.5424 2.66784 67.4477 2.47394 67.3504C2.35284 67.2898 2.23175 67.2269 2.11179 67.164C1.38395 66.7807 0.678868 66.3563 0 65.893L0 60.5685C0 59.7079 0.344587 58.8825 0.957957 58.2739C1.57133 57.6654 2.40323 57.3235 3.27067 57.3235L97.3425 57.3235C98.1339 57.3249 98.8978 57.611 99.4928 58.1286L105.717 63.5406C106.068 63.8447 106.349 64.2196 106.542 64.6402C106.734 65.0608 106.834 65.5174 106.834 65.9794V65.9794Z" fill="#582D1D"/>
<path d="M43.3076 23.6732C40.8397 23.8349 38.3812 24.0969 35.9322 24.4592C35.2361 24.5625 34.53 24.677 33.8951 24.9824C33.4017 25.2388 32.9469 25.5623 32.5438 25.9436C30.7258 27.5595 29.262 29.5289 28.2433 31.7296C27.6129 33.0938 27.1602 34.5367 26.566 35.9121C24.4509 40.8245 20.6143 44.842 18.3815 49.7028C17.8982 50.7549 17.4908 51.853 17.329 52.9972C17.1615 54.1807 17.3516 55.5618 18.3317 56.2534C18.7843 56.5712 19.3344 56.7026 19.8731 56.8148C26.6545 58.3048 33.5148 59.4163 40.4217 60.144C39.6736 59.4277 39.4235 58.3172 39.522 57.2909C39.6204 56.2647 40.0267 55.2945 40.4273 54.3435C36.5184 53.4879 32.6192 52.5896 28.7299 51.6487C28.1493 51.5083 27.4522 51.2445 27.3809 50.6561C27.3447 50.3563 27.4941 50.0677 27.6412 49.8039C29.2999 46.8238 31.289 44.0368 33.5714 41.4949C33.5714 44.6455 33.4141 48.2038 33.4141 51.3556H70.0931C69.652 49.5573 69.3927 47.7199 69.319 45.8706C69.1481 39.8342 71.1965 33.8439 70.6646 27.8199C70.6148 27.264 70.5379 26.6914 70.2447 26.2153C69.7389 25.3934 68.7294 25.0532 67.8014 24.7725C64.2432 23.699 60.6104 22.6133 56.8916 22.6975C55.7859 22.7233 54.6847 22.8513 53.5858 22.9804C50.2371 23.3723 46.6722 23.452 43.3076 23.6732Z" fill="#EEE8F6"/>
<path d="M26.129 59.8858L28.7998 68.3666C28.8169 68.4203 28.8508 68.4672 28.8966 68.5005C28.9424 68.5339 28.9977 68.5518 29.0545 68.5519H40.5154L37.7992 58.6709L26.3621 59.5433C26.3223 59.5466 26.2837 59.5587 26.2492 59.5787C26.2147 59.5988 26.1851 59.6262 26.1628 59.6591C26.1404 59.692 26.1257 59.7294 26.1199 59.7686C26.114 59.8079 26.1171 59.8479 26.129 59.8858V59.8858Z" fill="#656478"/>
<path d="M45.7214 27.3202C45.2235 27.6043 44.6429 27.7065 44.077 27.8042L40.425 28.433C39.7143 28.5553 38.9662 28.6946 38.4184 29.1605C37.298 30.1116 37.5402 31.8621 37.8797 33.2859L38.5588 36.1423C39.0703 38.2892 39.5932 40.4619 40.6423 42.4067C42.4745 45.801 45.8357 48.2454 49.5319 49.4233C50.8526 49.8443 52.248 50.1183 53.6265 49.9678C56.3267 49.6736 58.6366 47.7637 60.0603 45.4675C61.484 43.1713 62.1619 40.5079 62.7832 37.8827C63.3796 35.3698 63.9466 32.821 63.9081 30.2385C63.8968 29.4345 63.8153 28.5946 63.383 27.9131C62.4358 26.4163 60.2889 26.3041 58.5291 26.5803C58.2552 26.6241 57.9711 26.6712 57.7074 26.5893C56.9152 26.3445 56.8971 25.2654 56.5576 24.5165C55.9159 23.104 54.0124 22.8536 52.4563 22.9816C50.9002 23.1096 48.4771 23.2746 47.1213 24.1493C45.8176 24.9858 47.2504 26.4455 45.7214 27.3202Z" fill="#FBBEBE"/>
<path opacity="0.1" d="M45.7214 27.3202C45.2235 27.6043 44.6429 27.7065 44.077 27.8042L40.425 28.433C39.7143 28.5553 38.9662 28.6946 38.4184 29.1605C37.298 30.1116 37.5402 31.8621 37.8797 33.2859L38.5588 36.1423C39.0703 38.2892 39.5932 40.4619 40.6423 42.4067C42.4745 45.801 45.8357 48.2454 49.5319 49.4233C50.8526 49.8443 52.248 50.1183 53.6265 49.9678C56.3267 49.6736 58.6366 47.7637 60.0603 45.4675C61.484 43.1713 62.1619 40.5079 62.7832 37.8827C63.3796 35.3698 63.9466 32.821 63.9081 30.2385C63.8968 29.4345 63.8153 28.5946 63.383 27.9131C62.4358 26.4163 60.2889 26.3041 58.5291 26.5803C58.2552 26.6241 57.9711 26.6712 57.7074 26.5893C56.9152 26.3445 56.8971 25.2654 56.5576 24.5165C55.9159 23.104 54.0124 22.8536 52.4563 22.9816C50.9002 23.1096 48.4771 23.2746 47.1213 24.1493C45.8176 24.9858 47.2504 26.4455 45.7214 27.3202Z" fill="black"/>
<path d="M42.6986 30.5383C43.2509 31.6881 43.6651 32.9075 44.3328 33.9955C44.8636 34.8601 45.5437 35.6225 46.2205 36.3804C47.9735 38.3476 49.7492 40.3305 51.9187 41.8284C52.8171 37.2491 54.9875 33.0101 58.185 29.5895C59.1198 28.5935 60.29 27.6122 61.6617 27.6492C62.5127 27.6728 63.2982 28.0916 64.0066 28.5576C64.7988 29.0775 65.548 29.6804 66.1173 30.4294C67.017 31.6218 67.4052 33.132 67.4753 34.6198C67.5455 36.1076 67.3124 37.5919 67.0815 39.0629L65.8932 46.6656C65.8241 47.1057 65.728 47.5919 65.3658 47.8558C65.1601 47.9851 64.9283 48.0679 64.6868 48.0983C60.367 48.9326 55.9148 48.3914 51.5136 48.3487C46.6472 48.3027 41.6461 48.8529 37.0366 47.3168C36.7955 47.236 36.5454 47.1428 36.3825 46.9508C36.2754 46.806 36.1985 46.6415 36.1561 46.4668C35.0821 43.0175 35.9434 39.311 36.5805 35.7572C37.085 32.941 37.4442 30.101 37.6568 27.2484C37.676 26.9912 40.5234 27.5594 40.8414 27.7413C41.7072 28.2499 42.2821 29.6715 42.6986 30.5383Z" fill="#EEE8F6"/>
<path d="M50.1354 28.5789C55.3856 28.5789 59.6418 24.3561 59.6418 19.1471C59.6418 13.938 55.3856 9.71527 50.1354 9.71527C44.8851 9.71527 40.6289 13.938 40.6289 19.1471C40.6289 24.3561 44.8851 28.5789 50.1354 28.5789Z" fill="#FBBEBE"/>
<path d="M46.2738 0.639362C43.7376 0.958247 41 1.37931 39.2073 3.18708C38.2046 4.19763 37.6173 5.54503 37.134 6.87896C36.3848 8.95621 35.8269 11.1457 36.0023 13.3499C36.1585 15.3216 36.8941 17.3382 36.2988 19.2268C36.0249 20.0959 35.4874 20.8549 35.0698 21.6645C34.2957 23.1679 33.9313 24.8533 33.7977 26.5364C33.7049 27.6941 33.723 28.8854 34.1067 29.9824C34.5152 31.1502 35.312 32.1439 35.8167 33.2735C36.5637 34.942 36.6383 36.8194 36.6961 38.644C36.7538 40.4686 36.8024 42.2808 36.8454 44.0987C36.8726 45.2418 36.8749 46.4657 36.2377 47.4189C38.5906 46.4836 40.9762 45.5292 42.9895 44.0022C45.0029 42.4751 46.6326 40.2732 46.8928 37.7715C47.1033 35.7437 46.413 33.7451 45.8177 31.7936C44.3465 26.9654 43.3958 21.8183 44.4664 16.8879C44.8524 15.1127 45.7906 13.1309 47.5911 12.8042C48.69 12.6054 49.7867 13.1028 50.7769 13.6171C53.1173 14.832 55.5301 16.404 56.4016 18.8776C57.1938 21.1143 56.5272 23.6058 55.4962 25.7415C54.4652 27.8771 53.0619 29.841 52.2606 32.0731C51.0304 35.4978 51.3767 39.5074 53.4206 42.5245C55.4645 45.5416 59.241 47.3976 62.8727 46.9103C62.5887 45.6931 61.698 44.7095 61.2204 43.553C60.3524 41.4522 60.9375 39.0359 61.8712 36.9631C62.8048 34.8903 64.0791 32.9579 64.6631 30.7572C65.075 29.2077 65.1248 27.5885 65.1226 25.9863C65.1226 23.4644 64.997 20.9414 64.7525 18.4307C64.5081 15.92 64.1346 13.3779 63.3288 10.9627C62.6815 9.02582 61.7387 7.15293 60.3286 5.66742C58.828 4.08534 56.8746 3.01304 54.9563 1.96206C53.8088 1.33552 52.6363 0.701119 51.3484 0.466446C50.3299 0.281178 49.2593 0.0173108 48.2204 0.000468221C47.5142 -0.0096373 46.7718 0.141946 46.2738 0.639362Z" fill="#272323"/>
<path d="M64.1664 12.813L58.0503 11.6357C57.8723 11.6014 57.7001 11.7168 57.6656 11.8933L54.7353 26.8777C54.7008 27.0543 54.8171 27.2252 54.995 27.2594L61.1111 28.4367C61.289 28.471 61.4613 28.3556 61.4958 28.1791L64.426 13.1947C64.4606 13.0181 64.3443 12.8473 64.1664 12.813Z" fill="#656478"/>
<path d="M64.6284 12.9021L58.5123 11.7247C58.3344 11.6905 58.1622 11.8058 58.1276 11.9824L55.1974 26.9668C55.1629 27.1433 55.2791 27.3142 55.4571 27.3485L61.5731 28.5258C61.7511 28.56 61.9233 28.4447 61.9578 28.2681L64.8881 13.2837C64.9226 13.1072 64.8063 12.9363 64.6284 12.9021Z" fill="#EC9455"/>
<path d="M61.3624 15.7846C61.482 15.1728 61.3726 14.6371 61.118 14.5881C60.8633 14.5391 60.5599 14.9953 60.4403 15.6071C60.3206 16.2189 60.4301 16.7546 60.6847 16.8037C60.9393 16.8527 61.2427 16.3964 61.3624 15.7846Z" fill="#EEE8F6"/>
<path d="M62.8107 20.8875C62.5119 20.3631 62.1928 19.8208 61.6891 19.4851C61.3996 19.3089 61.0885 19.1704 60.7634 19.073C59.6667 18.6923 58.552 18.3083 57.392 18.2477C57.203 18.2387 56.9868 18.2477 56.8635 18.3914C56.61 18.6867 57.0117 19.0887 57.3592 19.2672L60.1228 20.6876L57.5753 20.4204C57.2053 20.3811 56.6779 20.481 56.705 20.8493C56.7231 21.0907 56.9902 21.2221 57.2211 21.2984C58.8564 21.8599 60.7464 22.3 61.6416 23.7687C60.4488 23.6564 59.2299 23.5441 58.0608 23.8046C57.7406 23.8765 57.409 23.9876 57.1996 24.238C56.9902 24.4884 56.9665 24.9117 57.2302 25.1105C57.3931 25.2306 57.6127 25.234 57.8164 25.2228C58.6459 25.1835 59.497 25.0195 60.2937 25.2542C61.0905 25.4889 61.7978 26.3175 61.5228 27.0945C62.229 27.1574 63.0642 27.0945 63.7172 26.7925C64.437 26.4556 64.42 25.8224 64.3758 25.0588C64.2819 23.5632 63.5338 22.1675 62.8107 20.8875Z" fill="#FBBEBE"/>
<path opacity="0.1" d="M62.0962 45.3641C61.4628 40.9455 60.594 36.5633 59.4932 32.2359C58.9273 29.9903 58.2845 27.7064 58.4464 25.3956C60.7845 25.6909 62.8793 25.9099 65.0341 24.9622C65.0692 26.176 65.9565 27.2079 66.279 28.3813C66.4952 29.1672 66.4137 29.9993 66.4986 30.8088C66.5834 31.6184 66.8381 32.4033 67.0565 33.1904C68.1402 37.0908 68.3957 41.172 67.8068 45.1755C65.8071 45.4113 64.0914 45.6707 62.0962 45.3641Z" fill="black"/>
<path d="M61.7567 45.3641C61.1233 40.9455 60.2545 36.5633 59.1537 32.2359C58.5879 29.9903 57.9451 27.7064 58.1069 25.3956C60.445 25.6909 62.5398 25.9099 64.6946 24.9622C64.7297 26.176 65.617 27.2079 65.9395 28.3813C66.1557 29.1672 66.0742 29.9993 66.1591 30.8088C66.2439 31.6184 66.4986 32.4033 66.717 33.1904C67.8007 37.0908 68.0563 41.172 67.4673 45.1755C65.4676 45.4113 63.7519 45.6707 61.7567 45.3641Z" fill="#EEE8F6"/>
<path d="M29.0432 67.2347L30.1512 39.9644C30.1688 39.5309 30.3559 39.1213 30.6728 38.8224C30.9897 38.5235 31.4115 38.3588 31.8487 38.3632L75.5919 38.7787C75.8237 38.7811 76.0525 38.8309 76.264 38.9252C76.4754 39.0195 76.6649 39.1561 76.8206 39.3265C76.9763 39.4969 77.0948 39.6973 77.1687 39.9153C77.2425 40.1333 77.2702 40.3641 77.2499 40.5932L74.9389 66.7182C74.9026 67.129 74.7143 67.512 74.4102 67.7931C74.1061 68.0743 73.7079 68.2338 73.2923 68.2408L30.7532 68.9706C30.5242 68.9745 30.2968 68.9319 30.085 68.8455C29.8732 68.7591 29.6813 68.6308 29.5212 68.4683C29.3611 68.3057 29.2362 68.1125 29.154 67.9004C29.0718 67.6883 29.0341 67.4618 29.0432 67.2347Z" fill="#EC9455"/>
<path d="M53.4737 53.0006C54.5363 53.0006 55.3977 51.9951 55.3977 50.7549C55.3977 49.5146 54.5363 48.5092 53.4737 48.5092C52.4112 48.5092 51.5498 49.5146 51.5498 50.7549C51.5498 51.9951 52.4112 53.0006 53.4737 53.0006Z" fill="#EEE8F6"/>
<path d="M94.6117 49.2121L94.5211 49.9824L93.0499 62.4301C89.2145 65.0834 86.2313 62.5334 86.2053 62.4301L84.3515 49.924L84.2462 49.2121H94.6117Z" fill="#EC9455"/>
<path opacity="0.1" d="M94.6117 49.2121L94.5211 49.9824C90.2002 52.4751 85.5907 50.5348 84.3515 49.924L84.2462 49.2121H94.6117Z" fill="black"/>
<path d="M84.0301 48.5361V49.659C84.0301 49.659 89.7453 52.9556 94.8946 49.659V48.5361H84.0301Z" fill="#EEE8F6"/>
<path d="M84.6944 47.0529C84.6944 47.0529 84.528 47.8108 84.0301 47.877V48.8326H94.8946V47.9758C94.8946 47.9758 94.2303 47.8108 94.3287 47.0529H84.6944Z" fill="#EEE8F6"/>
<path d="M89.4297 48.5362C92.1361 48.5362 94.3301 47.9088 94.3301 47.1349C94.3301 46.361 92.1361 45.7336 89.4297 45.7336C86.7233 45.7336 84.5293 46.361 84.5293 47.1349C84.5293 47.9088 86.7233 48.5362 89.4297 48.5362Z" fill="#EEE8F6"/>
<path opacity="0.1" d="M89.4297 48.5362C92.1361 48.5362 94.3301 47.9088 94.3301 47.1349C94.3301 46.361 92.1361 45.7336 89.4297 45.7336C86.7233 45.7336 84.5293 46.361 84.5293 47.1349C84.5293 47.9088 86.7233 48.5362 89.4297 48.5362Z" fill="black"/>
<path opacity="0.1" d="M93.7313 47.0529C93.7313 47.6143 91.873 48.0747 89.579 48.0747H89.4568C87.9165 48.0635 86.5856 47.8501 85.9066 47.5312C85.5999 47.3875 85.4256 47.2247 85.4256 47.0529C85.4256 46.7677 85.9009 46.5094 86.6705 46.3242C87.6267 46.1167 88.6037 46.0184 89.5824 46.0311C91.873 46.0311 93.7313 46.4881 93.7313 47.0529Z" fill="black"/>
<path opacity="0.1" d="M89.4566 48.0747C87.9164 48.0635 86.5855 47.8501 85.9064 47.5312L86.6669 46.3197L89.4566 48.0747Z" fill="black"/>
<path opacity="0.1" d="M85.1165 47.1315C85.0576 47.1192 84.9796 47.1394 84.9682 47.1978C84.9667 47.2275 84.9747 47.257 84.9909 47.282C85.1206 47.4855 85.3091 47.6456 85.5319 47.7412C85.5699 47.7625 85.6118 47.7758 85.6552 47.7805C85.6778 47.7832 85.7007 47.7791 85.7209 47.7687C85.7411 47.7582 85.7576 47.742 85.7684 47.7221C85.7746 47.7052 85.7772 47.6871 85.7758 47.6691C85.7744 47.6511 85.7692 47.6336 85.7605 47.6177C85.7259 47.557 85.6779 47.5048 85.6201 47.465C85.4685 47.3471 85.3134 47.1641 85.1165 47.1315Z" fill="black"/>
<path d="M89.5947 59.1335C91.2091 59.1335 92.5179 57.835 92.5179 56.2332C92.5179 54.6314 91.2091 53.3329 89.5947 53.3329C87.9802 53.3329 86.6715 54.6314 86.6715 56.2332C86.6715 57.835 87.9802 59.1335 89.5947 59.1335Z" fill="#EEE8F6"/>
<path d="M9.99634 56.2399H11.3669C12.1172 56.2399 12.8369 56.5357 13.3675 57.0621C13.8981 57.5885 14.1962 58.3025 14.1962 59.047V63.2184H7.16705V59.047C7.16705 58.3025 7.46513 57.5885 7.99573 57.0621C8.52632 56.5357 9.24597 56.2399 9.99634 56.2399V56.2399Z" fill="#EC9455"/>
<path opacity="0.1" d="M9.99634 56.2399H11.3669C12.1172 56.2399 12.8369 56.5357 13.3675 57.0621C13.8981 57.5885 14.1962 58.3025 14.1962 59.047V63.2184H7.16705V59.047C7.16705 58.3025 7.46513 57.5885 7.99573 57.0621C8.52632 56.5357 9.24597 56.2399 9.99634 56.2399V56.2399Z" fill="black"/>
<path d="M10.4006 57.7749C10.7113 57.7749 10.9631 57.525 10.9631 57.2168C10.9631 56.9086 10.7113 56.6588 10.4006 56.6588C10.09 56.6588 9.83815 56.9086 9.83815 57.2168C9.83815 57.525 10.09 57.7749 10.4006 57.7749Z" fill="#EC9455"/>
<path d="M10.4006 57.0776C10.7113 57.0776 10.9631 56.8277 10.9631 56.5195C10.9631 56.2113 10.7113 55.9615 10.4006 55.9615C10.09 55.9615 9.83815 56.2113 9.83815 56.5195C9.83815 56.8277 10.09 57.0776 10.4006 57.0776Z" fill="#EC9455"/>
<path d="M10.4006 56.3791C10.7113 56.3791 10.9631 56.1293 10.9631 55.8211C10.9631 55.5129 10.7113 55.2631 10.4006 55.2631C10.09 55.2631 9.83815 55.5129 9.83815 55.8211C9.83815 56.1293 10.09 56.3791 10.4006 56.3791Z" fill="#EC9455"/>
<path d="M10.4006 55.6819C10.7113 55.6819 10.9631 55.432 10.9631 55.1238C10.9631 54.8156 10.7113 54.5658 10.4006 54.5658C10.09 54.5658 9.83815 54.8156 9.83815 55.1238C9.83815 55.432 10.09 55.6819 10.4006 55.6819Z" fill="#EC9455"/>
<path d="M10.4006 54.9846C10.7113 54.9846 10.9631 54.7348 10.9631 54.4266C10.9631 54.1184 10.7113 53.8685 10.4006 53.8685C10.09 53.8685 9.83815 54.1184 9.83815 54.4266C9.83815 54.7348 10.09 54.9846 10.4006 54.9846Z" fill="#EC9455"/>
<path d="M10.4006 54.2874C10.7113 54.2874 10.9631 54.0375 10.9631 53.7293C10.9631 53.4211 10.7113 53.1713 10.4006 53.1713C10.09 53.1713 9.83815 53.4211 9.83815 53.7293C9.83815 54.0375 10.09 54.2874 10.4006 54.2874Z" fill="#EC9455"/>
<path d="M10.4006 53.59C10.7113 53.59 10.9631 53.3402 10.9631 53.032C10.9631 52.7238 10.7113 52.4739 10.4006 52.4739C10.09 52.4739 9.83815 52.7238 9.83815 53.032C9.83815 53.3402 10.09 53.59 10.4006 53.59Z" fill="#EC9455"/>
<path d="M11.245 53.8685C11.5556 53.8685 11.8075 53.6186 11.8075 53.3104C11.8075 53.0022 11.5556 52.7524 11.245 52.7524C10.9343 52.7524 10.6825 53.0022 10.6825 53.3104C10.6825 53.6186 10.9343 53.8685 11.245 53.8685Z" fill="#EC9455"/>
<path d="M11.8074 53.59C12.118 53.59 12.3699 53.3402 12.3699 53.032C12.3699 52.7238 12.118 52.4739 11.8074 52.4739C11.4968 52.4739 11.2449 52.7238 11.2449 53.032C11.2449 53.3402 11.4968 53.59 11.8074 53.59Z" fill="#EC9455"/>
<path d="M12.3698 53.3104C12.6805 53.3104 12.9323 53.0606 12.9323 52.7524C12.9323 52.4442 12.6805 52.1943 12.3698 52.1943C12.0592 52.1943 11.8074 52.4442 11.8074 52.7524C11.8074 53.0606 12.0592 53.3104 12.3698 53.3104Z" fill="#EC9455"/>
<path d="M10.4006 52.8928C10.7113 52.8928 10.9631 52.6429 10.9631 52.3347C10.9631 52.0265 10.7113 51.7767 10.4006 51.7767C10.09 51.7767 9.83815 52.0265 9.83815 52.3347C9.83815 52.6429 10.09 52.8928 10.4006 52.8928Z" fill="#EC9455"/>
<path d="M10.4006 52.1955C10.7113 52.1955 10.9631 51.9457 10.9631 51.6375C10.9631 51.3293 10.7113 51.0794 10.4006 51.0794C10.09 51.0794 9.83815 51.3293 9.83815 51.6375C9.83815 51.9457 10.09 52.1955 10.4006 52.1955Z" fill="#EC9455"/>
<path d="M10.4006 51.4971C10.7113 51.4971 10.9631 51.2472 10.9631 50.939C10.9631 50.6308 10.7113 50.381 10.4006 50.381C10.09 50.381 9.83815 50.6308 9.83815 50.939C9.83815 51.2472 10.09 51.4971 10.4006 51.4971Z" fill="#EC9455"/>
<path d="M10.4006 50.7998C10.7113 50.7998 10.9631 50.55 10.9631 50.2418C10.9631 49.9336 10.7113 49.6837 10.4006 49.6837C10.09 49.6837 9.83815 49.9336 9.83815 50.2418C9.83815 50.55 10.09 50.7998 10.4006 50.7998Z" fill="#EC9455"/>
<path d="M12.7318 48.4429C12.5926 48.4631 12.4523 48.4777 12.3119 48.4867C12.4429 48.3731 12.5644 48.2492 12.6752 48.1162C12.5969 47.8818 12.4824 47.661 12.3357 47.4616C12.1963 47.5393 12.0421 47.5874 11.883 47.603C11.7438 47.6233 11.6035 47.6379 11.4631 47.648C11.6476 47.4986 11.8196 47.2741 12.0007 47.0865C11.5822 46.7101 11.0427 46.4931 10.4782 46.4741C9.9136 46.4552 9.36056 46.6355 8.9174 46.9831C8.47423 47.3306 8.16967 47.8228 8.05788 48.3722C7.94609 48.9216 8.03431 49.4925 8.30686 49.9834C8.57941 50.4743 9.01861 50.8534 9.54636 51.0532C10.0741 51.2531 10.6562 51.2607 11.1891 51.0748C11.722 50.889 12.1712 50.5216 12.4568 50.038C12.7424 49.5544 12.8458 48.9861 12.7488 48.4339L12.7318 48.4429Z" fill="#EEE8F6"/>
<path d="M14.6115 51.2153C14.468 51.3027 14.3062 51.3561 14.1385 51.3713C13.9993 51.3915 13.8589 51.4073 13.7186 51.4163C13.8678 51.2835 14.007 51.1402 14.1351 50.9873C13.796 50.8996 13.4361 50.9405 13.1257 51.1021C12.8154 51.2636 12.577 51.5342 12.457 51.8609C12.3371 52.1877 12.3443 52.547 12.4772 52.8687C12.6101 53.1904 12.8592 53.4514 13.1758 53.6006C13.4923 53.7498 13.8536 53.7765 14.1889 53.6755C14.5243 53.5745 14.8096 53.353 14.9891 53.0544C15.1686 52.7557 15.2293 52.4014 15.1595 52.0607C15.0897 51.7199 14.8943 51.4173 14.6115 51.2119V51.2153Z" fill="#EEE8F6"/>
<path d="M9.55736 53.8685C9.868 53.8685 10.1198 53.6186 10.1198 53.3104C10.1198 53.0022 9.868 52.7524 9.55736 52.7524C9.24672 52.7524 8.9949 53.0022 8.9949 53.3104C8.9949 53.6186 9.24672 53.8685 9.55736 53.8685Z" fill="#EC9455"/>
<path d="M8.99495 53.59C9.30559 53.59 9.55742 53.3402 9.55742 53.032C9.55742 52.7238 9.30559 52.4739 8.99495 52.4739C8.68431 52.4739 8.43248 52.7238 8.43248 53.032C8.43248 53.3402 8.68431 53.59 8.99495 53.59Z" fill="#EC9455"/>
<path d="M8.43253 53.3104C8.74317 53.3104 8.995 53.0606 8.995 52.7524C8.995 52.4442 8.74317 52.1943 8.43253 52.1943C8.12189 52.1943 7.87007 52.4442 7.87007 52.7524C7.87007 53.0606 8.12189 53.3104 8.43253 53.3104Z" fill="#EC9455"/>
<path d="M6.1906 51.2153C6.33404 51.3028 6.49595 51.3562 6.66366 51.3713C6.80287 51.3915 6.9432 51.4073 7.08353 51.4163C6.9341 51.2838 6.79488 51.1404 6.66706 50.9873C7.00618 50.8996 7.36608 50.9405 7.67641 51.1021C7.98674 51.2636 8.22517 51.5342 8.3451 51.8609C8.46504 52.1877 8.45784 52.547 8.32492 52.8687C8.192 53.1904 7.94291 53.4514 7.62636 53.6006C7.30981 53.7498 6.94855 53.7765 6.61321 53.6755C6.27787 53.5745 5.99257 53.353 5.81307 53.0544C5.63357 52.7557 5.57279 52.4014 5.64261 52.0607C5.71243 51.7199 5.90783 51.4173 6.1906 51.2119V51.2153Z" fill="#EEE8F6"/>
<path d="M9.99634 56.6588H11.3669C12.1172 56.6588 12.8369 56.9545 13.3675 57.4809C13.8981 58.0074 14.1962 58.7214 14.1962 59.4658V63.1566C14.1962 63.2829 14.1456 63.404 14.0556 63.4932C13.9656 63.5825 13.8436 63.6327 13.7163 63.6327H7.6469C7.51963 63.6327 7.39758 63.5825 7.30759 63.4932C7.2176 63.404 7.16705 63.2829 7.16705 63.1566V59.4658C7.16705 58.7214 7.46513 58.0074 7.99573 57.4809C8.52632 56.9545 9.24597 56.6588 9.99634 56.6588V56.6588Z" fill="#EC9455"/>
<g opacity="0.1">
<path opacity="0.1" d="M12.7742 48.5957C12.7174 48.6559 12.6571 48.7127 12.5937 48.7658C12.658 48.7658 12.7211 48.7557 12.7854 48.749C12.7877 48.6975 12.7798 48.6461 12.7742 48.5957Z" fill="black"/>
<path opacity="0.1" d="M11.7497 47.9287C11.8911 47.9198 12.0303 47.9052 12.1707 47.885C12.2966 47.8691 12.4196 47.8359 12.5362 47.7861C12.4792 47.6738 12.4134 47.566 12.3393 47.4639C12.2689 47.5064 12.1927 47.5386 12.113 47.5593C12.002 47.6919 11.8805 47.8154 11.7497 47.9287Z" fill="black"/>
<path opacity="0.1" d="M8.29229 49.1268C8.29145 48.7011 8.40634 48.2831 8.62485 47.9167C8.84337 47.5504 9.15743 47.2493 9.53394 47.0451C9.91046 46.841 10.3355 46.7414 10.7643 46.7568C11.1931 46.7722 11.6097 46.902 11.9704 47.1327L12.0066 47.0945C11.7712 46.8867 11.4967 46.7272 11.1989 46.6251C10.9012 46.5231 10.586 46.4805 10.2715 46.4998C9.95706 46.5192 9.64958 46.6001 9.36678 46.7378C9.08398 46.8756 8.83146 47.0675 8.62376 47.3026C8.41606 47.5376 8.25728 47.8111 8.15659 48.1073C8.0559 48.4035 8.01528 48.7165 8.03707 49.0283C8.05885 49.3402 8.14262 49.6446 8.28354 49.9242C8.42446 50.2038 8.61975 50.4529 8.85815 50.6573C8.49214 50.2301 8.29152 49.6875 8.29229 49.1268V49.1268Z" fill="black"/>
</g>
<g opacity="0.1">
<path opacity="0.1" d="M13.7189 51.6947C13.8593 51.6857 13.9996 51.6711 14.1388 51.6509C14.3066 51.6353 14.4684 51.5815 14.6119 51.4937C14.7708 51.6099 14.9033 51.7578 15.0007 51.9281C15.0982 52.0983 15.1585 52.287 15.1777 52.4818C15.1832 52.433 15.1858 52.3839 15.1856 52.3347C15.1867 52.1167 15.136 51.9014 15.0377 51.7063C14.9394 51.5113 14.7963 51.3419 14.6198 51.2119C14.4763 51.2993 14.3144 51.3527 14.1467 51.368L14.0336 51.3826C13.937 51.4946 13.8318 51.5989 13.7189 51.6947V51.6947Z" fill="black"/>
<path opacity="0.1" d="M13.7754 51.2187C13.8223 51.2192 13.8692 51.2226 13.9157 51.2288C13.9893 51.1513 14.0617 51.0682 14.1353 50.9873C13.9272 50.9322 13.7091 50.9253 13.498 50.9672C13.2868 51.0091 13.0882 51.0986 12.9175 51.2289C12.7468 51.3592 12.6086 51.5267 12.5136 51.7185C12.4186 51.9102 12.3694 52.1211 12.3698 52.3348C12.3698 52.3819 12.3698 52.4279 12.3766 52.474C12.4114 52.1299 12.5738 51.8109 12.8322 51.579C13.0907 51.347 13.4268 51.2186 13.7754 51.2187V51.2187Z" fill="black"/>
</g>
<g opacity="0.1">
<path opacity="0.1" d="M7.08354 51.6947C6.94321 51.6857 6.80288 51.6711 6.66367 51.6509C6.49588 51.6355 6.33397 51.5817 6.19062 51.4937C6.03172 51.6099 5.89922 51.7578 5.80173 51.9281C5.70424 52.0983 5.64395 52.287 5.62476 52.4818C5.61927 52.433 5.61663 52.3839 5.61684 52.3347C5.61577 52.1167 5.66643 51.9014 5.76473 51.7063C5.86303 51.5113 6.00621 51.3419 6.1827 51.2119C6.32613 51.2995 6.48804 51.3529 6.65575 51.368L6.76892 51.3826C6.86489 51.4951 6.97012 51.5995 7.08354 51.6947Z" fill="black"/>
<path opacity="0.1" d="M7.0271 51.2187C6.97979 51.2192 6.93254 51.2226 6.88564 51.2288C6.81321 51.1513 6.74078 51.0682 6.66722 50.9873C6.87528 50.9322 7.09333 50.9253 7.3045 50.9672C7.51568 51.0091 7.7143 51.0986 7.88499 51.2289C8.05569 51.3592 8.19387 51.5267 8.28885 51.7185C8.38383 51.9102 8.43304 52.1211 8.4327 52.3348C8.4327 52.3819 8.4327 52.4279 8.42591 52.474C8.39111 52.1299 8.22871 51.8109 7.97024 51.579C7.71176 51.347 7.37563 51.2186 7.0271 51.2187V51.2187Z" fill="black"/>
</g>
</svg>
